<mxfile host="app.diagrams.net" modified="2024-05-16T02:37:38.031Z" agent="Mozilla/5.0 (Windows NT 10.0; Win64; x64) AppleWebKit/537.36 (KHTML, like Gecko) Chrome/123.0.0.0 Safari/537.36 OPR/109.0.0.0" version="24.4.2" etag="yfR-ywMngby-kV70XIRc" type="github">
  <diagram name="PÃ¡gina-1" id="H8tjsjQl7CB58xYOA4u0">
    <mxGraphModel>
      <root>
        <mxCell id="0" />
        <mxCell id="1" parent="0" />
      </root>
    </mxGraphModel>
  </diagram>
</mxfile>
